<svg xmlns="http://www.w3.org/2000/svg" width="1420" height="2049" viewBox="0 0 1420 2049" font-family="Segoe UI, Arial, sans-serif"><rect width="1420" height="2049" fill="#ffffff"/><text x="26" y="20" font-size="13" font-weight="700" fill="#1a2230">Geschäftsprozess (Swimlane) — LoRaWAN-Heizungssteuerung, Make-Pfad</text><text x="26" y="34" font-size="8.5" fill="#5b6876">Spalten = Rollen · Ablauf von oben nach unten · grün = neu (Logistik/Schlüssel/Abrechnung) · ◆ = Entscheidungs-Gate</text><rect x="26" y="40" width="192" height="14" fill="#1a2230"/><text x="122" y="50" font-size="8.5" font-weight="700" fill="#fff" text-anchor="middle">Projektleitung</text><rect x="222" y="40" width="192" height="14" fill="#1a2230"/><text x="318" y="50" font-size="8.5" font-weight="700" fill="#fff" text-anchor="middle">Ing. Planung</text><rect x="418" y="40" width="192" height="14" fill="#1a2230"/><text x="514" y="50" font-size="8.5" font-weight="700" fill="#fff" text-anchor="middle">Ing. Betrieb</text><rect x="614" y="40" width="192" height="14" fill="#1a2230"/><text x="710" y="50" font-size="8.5" font-weight="700" fill="#fff" text-anchor="middle">Installateur</text><rect x="810" y="40" width="192" height="14" fill="#1a2230"/><text x="906" y="50" font-size="8.5" font-weight="700" fill="#fff" text-anchor="middle">Lager</text><rect x="1006" y="40" width="192" height="14" fill="#1a2230"/><text x="1102" y="50" font-size="8.5" font-weight="700" fill="#fff" text-anchor="middle">Hersteller</text><rect x="1202" y="40" width="192" height="14" fill="#1a2230"/><text x="1298" y="50" font-size="8.5" font-weight="700" fill="#fff" text-anchor="middle">Kunde</text><rect x="0" y="52" width="1420" height="22" fill="#eef2f6"/><text x="26" y="68" font-size="11" font-weight="700" fill="#1a2230">1. Akquise, Auslegung &amp; Angebot</text><rect x="30" y="80" width="188" height="30" rx="4" fill="#eaf1fb" stroke="#9fb6d6" stroke-width="0.8"/><text x="36" y="98" font-size="7.6" font-weight="700" fill="#1a2230">1. Lead-Erfassung &amp; Erstkontakt</text><path d="M124,110 C124,114 124,114 124,119" stroke="#c4ccd6" stroke-width="1" fill="none"/><rect x="30" y="119" width="188" height="30" rx="4" fill="#eaf1fb" stroke="#9fb6d6" stroke-width="0.8"/><text x="36" y="132" font-size="7.6" font-weight="700" fill="#1a2230">2. Telefonische Grob-Qualifizierung</text><text x="36" y="142" font-size="7.6" fill="#1a2230">(Fragenkatalog…</text><path d="M124,149 C124,154 320,154 320,158" stroke="#c4ccd6" stroke-width="1" fill="none"/><rect x="226" y="158" width="188" height="30" rx="4" fill="#eaf1fb" stroke="#9fb6d6" stroke-width="0.8"/><text x="232" y="171" font-size="7.6" font-weight="700" fill="#1a2230">3. Vor-Auslegung am Schreibtisch</text><text x="232" y="181" font-size="7.6" fill="#1a2230">(Modell-Erstschuss)</text><path d="M320,188 C320,192 124,192 124,197" stroke="#c4ccd6" stroke-width="1" fill="none"/><rect x="30" y="197" width="188" height="30" rx="4" fill="#eaf1fb" stroke="#9a6700" stroke-width="1.4"/><text x="36" y="210" font-size="7.6" font-weight="700" fill="#1a2230">4. GATE A - Qualify-out / Go für</text><text x="36" y="220" font-size="7.6" fill="#1a2230">Begehung</text><text x="214" y="208" font-size="8" fill="#9a6700" text-anchor="end">◆</text><path d="M124,227 C124,232 320,232 320,236" stroke="#c4ccd6" stroke-width="1" fill="none"/><rect x="226" y="236" width="188" height="30" rx="4" fill="#e8f6ee" stroke="#9fb6d6" stroke-width="0.8"/><text x="232" y="249" font-size="7.6" font-weight="700" fill="#1a2230">5. Begehungs-Vorbereitung &amp;</text><text x="232" y="259" font-size="7.6" fill="#1a2230">Mess-Set rüsten</text><path d="M320,266 C320,270 320,270 320,275" stroke="#c4ccd6" stroke-width="1" fill="none"/><rect x="226" y="275" width="188" height="30" rx="4" fill="#eaf1fb" stroke="#9fb6d6" stroke-width="0.8"/><text x="232" y="288" font-size="7.6" font-weight="700" fill="#1a2230">6. Begehung, Bestandsaufnahme &amp;</text><text x="232" y="298" font-size="7.6" fill="#1a2230">Heizkörper-/Ventil-Zählung</text><path d="M320,305 C320,310 320,310 320,314" stroke="#c4ccd6" stroke-width="1" fill="none"/><rect x="226" y="314" width="188" height="30" rx="4" fill="#eaf1fb" stroke="#9a6700" stroke-width="1.4"/><text x="232" y="327" font-size="7.6" font-weight="700" fill="#1a2230">7. Funk-Voruntersuchung</text><text x="232" y="337" font-size="7.6" fill="#1a2230">(RF-Site-Survey mit Test-Node)</text><text x="410" y="325" font-size="8" fill="#9a6700" text-anchor="end">◆</text><path d="M320,344 C320,348 320,348 320,353" stroke="#c4ccd6" stroke-width="1" fill="none"/><rect x="226" y="353" width="188" height="30" rx="4" fill="#eaf1fb" stroke="#9a6700" stroke-width="1.4"/><text x="232" y="366" font-size="7.6" font-weight="700" fill="#1a2230">8. Verbindliche Auslegung &amp; Sizing</text><text x="232" y="376" font-size="7.6" fill="#1a2230">(Modell-Endlauf)</text><text x="410" y="364" font-size="8" fill="#9a6700" text-anchor="end">◆</text><path d="M320,383 C320,388 124,388 124,392" stroke="#c4ccd6" stroke-width="1" fill="none"/><rect x="30" y="392" width="188" height="30" rx="4" fill="#eaf1fb" stroke="#9fb6d6" stroke-width="0.8"/><text x="36" y="405" font-size="7.6" font-weight="700" fill="#1a2230">9. Angebotskalkulation &amp;</text><text x="36" y="415" font-size="7.6" fill="#1a2230">Make-vs-Buy-Gegenüberstellung</text><path d="M124,422 C124,426 124,426 124,431" stroke="#c4ccd6" stroke-width="1" fill="none"/><rect x="30" y="431" width="188" height="30" rx="4" fill="#eaf1fb" stroke="#9fb6d6" stroke-width="0.8"/><text x="36" y="449" font-size="7.6" font-weight="700" fill="#1a2230">10. Angebotserstellung &amp; Versand</text><path d="M124,461 C124,466 124,466 124,470" stroke="#c4ccd6" stroke-width="1" fill="none"/><rect x="30" y="470" width="188" height="30" rx="4" fill="#eaf1fb" stroke="#9fb6d6" stroke-width="0.8"/><text x="36" y="483" font-size="7.6" font-weight="700" fill="#1a2230">11. Angebotsklaerung &amp;</text><text x="36" y="493" font-size="7.6" fill="#1a2230">Nachverhandlung</text><path d="M124,500 C124,504 1300,504 1300,509" stroke="#c4ccd6" stroke-width="1" fill="none"/><rect x="1206" y="509" width="188" height="30" rx="4" fill="#e8f6ee" stroke="#9a6700" stroke-width="1.4"/><text x="1212" y="527" font-size="7.6" font-weight="700" fill="#1a2230">12. GATE B - Auftragsannahme</text><text x="1390" y="520" font-size="8" fill="#9a6700" text-anchor="end">◆</text><rect x="0" y="552" width="1420" height="22" fill="#eef2f6"/><text x="26" y="568" font-size="11" font-weight="700" fill="#1a2230">2. Beschaffung &amp; Lager-Logistik</text><path d="M1300,539 C1300,560 124,560 124,580" stroke="#c4ccd6" stroke-width="1" fill="none"/><rect x="30" y="580" width="188" height="30" rx="4" fill="#e8f6ee" stroke="#9a6700" stroke-width="1.4"/><text x="36" y="593" font-size="7.6" font-weight="700" fill="#1a2230">13. Stückliste &amp; Bestellanforderung</text><text x="36" y="603" font-size="7.6" fill="#1a2230">(BANF) finalisieren</text><text x="214" y="591" font-size="8" fill="#9a6700" text-anchor="end">◆</text><path d="M124,610 C124,614 124,614 124,619" stroke="#c4ccd6" stroke-width="1" fill="none"/><rect x="30" y="619" width="188" height="30" rx="4" fill="#e8f6ee" stroke="#9a6700" stroke-width="1.4"/><text x="36" y="632" font-size="7.6" font-weight="700" fill="#1a2230">14. Bestellung auslösen &amp;</text><text x="36" y="642" font-size="7.6" fill="#1a2230">Bulk-Konditionen +…</text><text x="214" y="630" font-size="8" fill="#9a6700" text-anchor="end">◆</text><path d="M124,649 C124,654 516,654 516,658" stroke="#c4ccd6" stroke-width="1" fill="none"/><rect x="422" y="658" width="188" height="30" rx="4" fill="#e8f6ee" stroke="#9a6700" stroke-width="1.4"/><text x="428" y="671" font-size="7.6" font-weight="700" fill="#1a2230">15. Hersteller-Schlüsselliste</text><text x="428" y="681" font-size="7.6" fill="#1a2230">empfangen, sichern &amp; validieren</text><text x="606" y="669" font-size="8" fill="#9a6700" text-anchor="end">◆</text><path d="M516,688 C516,692 908,692 908,697" stroke="#c4ccd6" stroke-width="1" fill="none"/><rect x="814" y="697" width="188" height="30" rx="4" fill="#e8f6ee" stroke="#9a6700" stroke-width="1.4"/><text x="820" y="710" font-size="7.6" font-weight="700" fill="#1a2230">16. Wareneingang &amp; physische</text><text x="820" y="720" font-size="7.6" fill="#1a2230">Eingangsprüfung (Soll-Ist,…</text><text x="998" y="708" font-size="8" fill="#9a6700" text-anchor="end">◆</text><path d="M908,727 C908,732 516,732 516,736" stroke="#c4ccd6" stroke-width="1" fill="none"/><rect x="422" y="736" width="188" height="30" rx="4" fill="#e8f6ee" stroke="#9a6700" stroke-width="1.4"/><text x="428" y="749" font-size="7.6" font-weight="700" fill="#1a2230">17. Abgleich Ware &lt;-&gt; Schlüsselliste</text><text x="428" y="759" font-size="7.6" fill="#1a2230">(DevEUI-Matching)</text><text x="606" y="747" font-size="8" fill="#9a6700" text-anchor="end">◆</text><path d="M516,766 C516,770 908,770 908,775" stroke="#c4ccd6" stroke-width="1" fill="none"/><rect x="814" y="775" width="188" height="30" rx="4" fill="#e8f6ee" stroke="#9a6700" stroke-width="1.4"/><text x="820" y="788" font-size="7.6" font-weight="700" fill="#1a2230">18. Einlagern in abschließbares</text><text x="820" y="798" font-size="7.6" fill="#1a2230">Zwischenlager</text><text x="998" y="786" font-size="8" fill="#9a6700" text-anchor="end">◆</text><rect x="0" y="818" width="1420" height="22" fill="#eef2f6"/><text x="26" y="834" font-size="11" font-weight="700" fill="#1a2230">3. LNS-Vorbereitung &amp; Schlüssel-Einspielung</text><path d="M908,805 C908,826 516,826 516,846" stroke="#c4ccd6" stroke-width="1" fill="none"/><rect x="422" y="846" width="188" height="30" rx="4" fill="#e8f6ee" stroke="#9a6700" stroke-width="1.4"/><text x="428" y="859" font-size="7.6" font-weight="700" fill="#1a2230">19. ChirpStack-Mandant, Application</text><text x="428" y="869" font-size="7.6" fill="#1a2230">&amp; Device-Profile (OTAA EU868)…</text><text x="606" y="857" font-size="8" fill="#9a6700" text-anchor="end">◆</text><path d="M516,876 C516,880 516,880 516,885" stroke="#c4ccd6" stroke-width="1" fill="none"/><rect x="422" y="885" width="188" height="30" rx="4" fill="#e8f6ee" stroke="#9a6700" stroke-width="1.4"/><text x="428" y="898" font-size="7.6" font-weight="700" fill="#1a2230">20. Geräte-Codec hinterlegen und</text><text x="428" y="908" font-size="7.6" fill="#1a2230">gegen Beispiel-Frame</text><text x="606" y="896" font-size="8" fill="#9a6700" text-anchor="end">◆</text><path d="M516,915 C516,920 516,920 516,924" stroke="#c4ccd6" stroke-width="1" fill="none"/><rect x="422" y="924" width="188" height="30" rx="4" fill="#e8f6ee" stroke="#9a6700" stroke-width="1.4"/><text x="428" y="937" font-size="7.6" font-weight="700" fill="#1a2230">21. OTAA-Charge in F-0005</text><text x="428" y="947" font-size="7.6" fill="#1a2230">importieren (CSV) &amp; Soll-Ist…</text><text x="606" y="935" font-size="8" fill="#9a6700" text-anchor="end">◆</text><path d="M516,954 C516,958 516,958 516,963" stroke="#c4ccd6" stroke-width="1" fill="none"/><rect x="422" y="963" width="188" height="30" rx="4" fill="#e8f6ee" stroke="#9a6700" stroke-width="1.4"/><text x="428" y="976" font-size="7.6" font-weight="700" fill="#1a2230">22. Geräte per F-0005/gRPC in</text><text x="428" y="986" font-size="7.6" fill="#1a2230">ChirpStack anlegen &amp; OTAA-Keys…</text><text x="606" y="974" font-size="8" fill="#9a6700" text-anchor="end">◆</text><path d="M516,993 C516,998 516,998 516,1002" stroke="#c4ccd6" stroke-width="1" fill="none"/><rect x="422" y="1002" width="188" height="30" rx="4" fill="#e8f6ee" stroke="#9a6700" stroke-width="1.4"/><text x="428" y="1015" font-size="7.6" font-weight="700" fill="#1a2230">23. Monitoring scharfschalten (Join,</text><text x="428" y="1025" font-size="7.6" fill="#1a2230">Online/Offline, Batterie,…</text><text x="606" y="1013" font-size="8" fill="#9a6700" text-anchor="end">◆</text><path d="M516,1032 C516,1036 124,1036 124,1041" stroke="#c4ccd6" stroke-width="1" fill="none"/><rect x="30" y="1041" width="188" height="30" rx="4" fill="#e8f6ee" stroke="#9a6700" stroke-width="1.4"/><text x="36" y="1054" font-size="7.6" font-weight="700" fill="#1a2230">24. Installations-Wellenplanung &amp;</text><text x="36" y="1064" font-size="7.6" fill="#1a2230">Kommissionierung je</text><text x="214" y="1052" font-size="8" fill="#9a6700" text-anchor="end">◆</text><path d="M124,1071 C124,1076 908,1076 908,1080" stroke="#c4ccd6" stroke-width="1" fill="none"/><rect x="814" y="1080" width="188" height="30" rx="4" fill="#e8f6ee" stroke="#9a6700" stroke-width="1.4"/><text x="820" y="1093" font-size="7.6" font-weight="700" fill="#1a2230">25. Auslagern &amp; Übergabe an</text><text x="820" y="1103" font-size="7.6" fill="#1a2230">Installateur (Phasen-Gate…</text><text x="998" y="1091" font-size="8" fill="#9a6700" text-anchor="end">◆</text><rect x="0" y="1123" width="1420" height="22" fill="#eef2f6"/><text x="26" y="1139" font-size="11" font-weight="700" fill="#1a2230">4. Installation, Inbetriebnahme &amp; Abnahme</text><path d="M908,1110 C908,1130 712,1130 712,1151" stroke="#c4ccd6" stroke-width="1" fill="none"/><rect x="618" y="1151" width="188" height="30" rx="4" fill="#eaf1fb" stroke="#9a6700" stroke-width="1.4"/><text x="624" y="1164" font-size="7.6" font-weight="700" fill="#1a2230">26. Gateway montieren, Bring-up &amp;</text><text x="624" y="1174" font-size="7.6" fill="#1a2230">Funk-Bestätigung (Survey aus…</text><text x="802" y="1162" font-size="8" fill="#9a6700" text-anchor="end">◆</text><path d="M712,1181 C712,1186 712,1186 712,1190" stroke="#c4ccd6" stroke-width="1" fill="none"/><rect x="618" y="1190" width="188" height="30" rx="4" fill="#eaf1fb" stroke="#9a6700" stroke-width="1.4"/><text x="624" y="1203" font-size="7.6" font-weight="700" fill="#1a2230">27. Zweit-Gateway-Kontingenz</text><text x="624" y="1213" font-size="7.6" fill="#1a2230">(bedingt) montieren &amp; einbinden</text><text x="802" y="1201" font-size="8" fill="#9a6700" text-anchor="end">◆</text><path d="M712,1220 C712,1224 712,1224 712,1229" stroke="#c4ccd6" stroke-width="1" fill="none"/><rect x="618" y="1229" width="188" height="30" rx="4" fill="#e8f6ee" stroke="#9fb6d6" stroke-width="0.8"/><text x="624" y="1242" font-size="7.6" font-weight="700" fill="#1a2230">28. Aktoren tauschen - Welle 1</text><text x="624" y="1252" font-size="7.6" fill="#1a2230">(Hydraulik &amp; Montage, ohne…</text><path d="M712,1259 C712,1264 516,1264 516,1268" stroke="#c4ccd6" stroke-width="1" fill="none"/><rect x="422" y="1268" width="188" height="30" rx="4" fill="#eaf1fb" stroke="#9a6700" stroke-width="1.4"/><text x="428" y="1281" font-size="7.6" font-weight="700" fill="#1a2230">29. Commissioning Welle 1 -</text><text x="428" y="1291" font-size="7.6" fill="#1a2230">Join-Verifikation &amp;…</text><text x="606" y="1279" font-size="8" fill="#9a6700" text-anchor="end">◆</text><path d="M516,1298 C516,1302 712,1302 712,1307" stroke="#c4ccd6" stroke-width="1" fill="none"/><rect x="618" y="1307" width="188" height="30" rx="4" fill="#e8f6ee" stroke="#9fb6d6" stroke-width="0.8"/><text x="624" y="1320" font-size="7.6" font-weight="700" fill="#1a2230">30. Aktoren tauschen - Welle 2</text><text x="624" y="1330" font-size="7.6" fill="#1a2230">(Restgeschosse + Nacharbeit aus…</text><path d="M712,1337 C712,1342 516,1342 516,1346" stroke="#c4ccd6" stroke-width="1" fill="none"/><rect x="422" y="1346" width="188" height="30" rx="4" fill="#eaf1fb" stroke="#9a6700" stroke-width="1.4"/><text x="428" y="1359" font-size="7.6" font-weight="700" fill="#1a2230">31. Commissioning Welle 2 -</text><text x="428" y="1369" font-size="7.6" fill="#1a2230">Join-Verifikation &amp; vollständig…</text><text x="606" y="1357" font-size="8" fill="#9a6700" text-anchor="end">◆</text><path d="M516,1376 C516,1380 516,1380 516,1385" stroke="#c4ccd6" stroke-width="1" fill="none"/><rect x="422" y="1385" width="188" height="30" rx="4" fill="#eaf1fb" stroke="#9a6700" stroke-width="1.4"/><text x="428" y="1398" font-size="7.6" font-weight="700" fill="#1a2230">32. Automatisierte</text><text x="428" y="1408" font-size="7.6" fill="#1a2230">Pass/Fail-Abnahmeprüfung gegen</text><text x="606" y="1396" font-size="8" fill="#9a6700" text-anchor="end">◆</text><path d="M516,1415 C516,1420 1300,1420 1300,1424" stroke="#c4ccd6" stroke-width="1" fill="none"/><rect x="1206" y="1424" width="188" height="30" rx="4" fill="#e8f6ee" stroke="#9a6700" stroke-width="1.4"/><text x="1212" y="1437" font-size="7.6" font-weight="700" fill="#1a2230">33. Förmliche Abnahme &amp; Übergabe mit</text><text x="1212" y="1447" font-size="7.6" fill="#1a2230">dem Kunden</text><text x="1390" y="1435" font-size="8" fill="#9a6700" text-anchor="end">◆</text><rect x="0" y="1467" width="1420" height="22" fill="#eef2f6"/><text x="26" y="1483" font-size="11" font-weight="700" fill="#1a2230">5. DOA-/RMA-Handling &amp; Beschaffungsabschluss</text><path d="M1300,1454 C1300,1474 908,1474 908,1495" stroke="#c4ccd6" stroke-width="1" fill="none"/><rect x="814" y="1495" width="188" height="30" rx="4" fill="#e8f6ee" stroke="#9a6700" stroke-width="1.4"/><text x="820" y="1508" font-size="7.6" font-weight="700" fill="#1a2230">34. DOA-/Ersatz-Handling &amp;</text><text x="820" y="1518" font-size="7.6" fill="#1a2230">Rücklieferung (RMA)</text><text x="998" y="1506" font-size="8" fill="#9a6700" text-anchor="end">◆</text><path d="M908,1525 C908,1530 124,1530 124,1534" stroke="#c4ccd6" stroke-width="1" fill="none"/><rect x="30" y="1534" width="188" height="30" rx="4" fill="#e8f6ee" stroke="#9a6700" stroke-width="1.4"/><text x="36" y="1547" font-size="7.6" font-weight="700" fill="#1a2230">35. Bestands-, Charge- &amp;</text><text x="36" y="1557" font-size="7.6" fill="#1a2230">Kostenabschluss der Beschaffung…</text><text x="214" y="1545" font-size="8" fill="#9a6700" text-anchor="end">◆</text><rect x="0" y="1577" width="1420" height="22" fill="#eef2f6"/><text x="26" y="1593" font-size="11" font-weight="700" fill="#1a2230">6. Schlussrechnung &amp; Betriebsübergabe</text><path d="M124,1564 C124,1584 124,1584 124,1605" stroke="#c4ccd6" stroke-width="1" fill="none"/><rect x="30" y="1605" width="188" height="30" rx="4" fill="#e8f6ee" stroke="#9a6700" stroke-width="1.4"/><text x="36" y="1618" font-size="7.6" font-weight="700" fill="#1a2230">36. Schlussrechnung (Projekt) &amp;</text><text x="36" y="1628" font-size="7.6" fill="#1a2230">Übergang in den Betrieb</text><text x="214" y="1616" font-size="8" fill="#9a6700" text-anchor="end">◆</text><path d="M124,1635 C124,1640 124,1640 124,1644" stroke="#c4ccd6" stroke-width="1" fill="none"/><rect x="30" y="1644" width="188" height="30" rx="4" fill="#e8f6ee" stroke="#9a6700" stroke-width="1.4"/><text x="36" y="1657" font-size="7.6" font-weight="700" fill="#1a2230">37. Betriebsübergabe &amp; Service-Setup</text><text x="36" y="1667" font-size="7.6" fill="#1a2230">(Handover)</text><text x="214" y="1655" font-size="8" fill="#9a6700" text-anchor="end">◆</text><rect x="0" y="1687" width="1420" height="22" fill="#eef2f6"/><text x="26" y="1703" font-size="11" font-weight="700" fill="#1a2230">7. Betrieb, Wartung, Batteriewellen &amp; Reporting</text><path d="M124,1674 C124,1694 516,1694 516,1715" stroke="#c4ccd6" stroke-width="1" fill="none"/><rect x="422" y="1715" width="188" height="30" rx="4" fill="#eaf1fb" stroke="#9a6700" stroke-width="1.4"/><text x="428" y="1728" font-size="7.6" font-weight="700" fill="#1a2230">38. Laufendes ereignisgesteuertes</text><text x="428" y="1738" font-size="7.6" fill="#1a2230">Monitoring (Online/Offline,…</text><text x="606" y="1726" font-size="8" fill="#9a6700" text-anchor="end">◆</text><path d="M516,1745 C516,1750 516,1750 516,1754" stroke="#c4ccd6" stroke-width="1" fill="none"/><rect x="422" y="1754" width="188" height="30" rx="4" fill="#e8f6ee" stroke="#9a6700" stroke-width="1.4"/><text x="428" y="1767" font-size="7.6" font-weight="700" fill="#1a2230">39. Störungsbehandlung &amp; Reparatur</text><text x="428" y="1777" font-size="7.6" fill="#1a2230">(Incident -&gt; Diagnose -&gt;…</text><text x="606" y="1765" font-size="8" fill="#9a6700" text-anchor="end">◆</text><path d="M516,1784 C516,1788 516,1788 516,1793" stroke="#c4ccd6" stroke-width="1" fill="none"/><rect x="422" y="1793" width="188" height="30" rx="4" fill="#e8f6ee" stroke="#9a6700" stroke-width="1.4"/><text x="428" y="1806" font-size="7.6" font-weight="700" fill="#1a2230">40. ChirpStack-/LNS-Pflege: Updates,</text><text x="428" y="1816" font-size="7.6" fill="#1a2230">Konfig, Backups &amp; Restore-Probe</text><text x="606" y="1804" font-size="8" fill="#9a6700" text-anchor="end">◆</text><path d="M516,1823 C516,1828 712,1828 712,1832" stroke="#c4ccd6" stroke-width="1" fill="none"/><rect x="618" y="1832" width="188" height="30" rx="4" fill="#e8f6ee" stroke="#9a6700" stroke-width="1.4"/><text x="624" y="1845" font-size="7.6" font-weight="700" fill="#1a2230">41. Batteriewechsel als geplante</text><text x="624" y="1855" font-size="7.6" fill="#1a2230">Welle (Charge statt Einzelfall)</text><text x="802" y="1843" font-size="8" fill="#9a6700" text-anchor="end">◆</text><path d="M712,1862 C712,1866 516,1866 516,1871" stroke="#c4ccd6" stroke-width="1" fill="none"/><rect x="422" y="1871" width="188" height="30" rx="4" fill="#eaf1fb" stroke="#9a6700" stroke-width="1.4"/><text x="428" y="1884" font-size="7.6" font-weight="700" fill="#1a2230">42. Regelparameter-Pflege &amp;</text><text x="428" y="1894" font-size="7.6" fill="#1a2230">saisonale Optimierung…</text><text x="606" y="1882" font-size="8" fill="#9a6700" text-anchor="end">◆</text><path d="M516,1901 C516,1906 516,1906 516,1910" stroke="#c4ccd6" stroke-width="1" fill="none"/><rect x="422" y="1910" width="188" height="30" rx="4" fill="#eaf1fb" stroke="#9a6700" stroke-width="1.4"/><text x="428" y="1923" font-size="7.6" font-weight="700" fill="#1a2230">43. Einspar-/Nutzenbericht (Mess- &amp;</text><text x="428" y="1933" font-size="7.6" fill="#1a2230">Verifikationsreport, M&amp;V)</text><text x="606" y="1921" font-size="8" fill="#9a6700" text-anchor="end">◆</text><path d="M516,1940 C516,1944 124,1944 124,1949" stroke="#c4ccd6" stroke-width="1" fill="none"/><rect x="30" y="1949" width="188" height="30" rx="4" fill="#e8f6ee" stroke="#9a6700" stroke-width="1.4"/><text x="36" y="1962" font-size="7.6" font-weight="700" fill="#1a2230">44. Abrechnung &amp; Leistungsnachweis</text><text x="36" y="1972" font-size="7.6" fill="#1a2230">(Betrieb/Service + variable…</text><text x="214" y="1960" font-size="8" fill="#9a6700" text-anchor="end">◆</text><path d="M124,1979 C124,1984 124,1984 124,1988" stroke="#c4ccd6" stroke-width="1" fill="none"/><rect x="30" y="1988" width="188" height="30" rx="4" fill="#eaf1fb" stroke="#9a6700" stroke-width="1.4"/><text x="36" y="2001" font-size="7.6" font-weight="700" fill="#1a2230">45. Periodischer Betriebs-Review,</text><text x="36" y="2011" font-size="7.6" fill="#1a2230">Vertragsverlängerung &amp;…</text><text x="214" y="1999" font-size="8" fill="#9a6700" text-anchor="end">◆</text></svg>